<svg width="128" height="32" viewBox="0 0 128 32" fill="none" xmlns="http://www.w3.org/2000/svg">
<path d="M21.1072 6.94891C22.9191 6.94891 24.731 6.94891 26.5978 6.94891C27.127 8.92251 27.127 8.92251 27.3572 9.78137C27.5127 10.3613 27.6682 10.9412 27.8236 11.5211C27.8742 11.7095 27.9247 11.8979 27.9752 12.0864C28.0125 12.2253 28.0125 12.2253 28.0505 12.3671C28.1738 12.8269 28.297 13.2867 28.4201 13.7466C28.4676 13.9241 28.5151 14.1016 28.5627 14.2791C28.5855 14.3645 28.6084 14.45 28.632 14.5379C28.7545 14.9956 28.8775 15.4531 29.0011 15.9104C29.0673 16.1556 29.1333 16.4007 29.1993 16.646C29.2425 16.8063 29.2861 16.9665 29.3297 17.1267C29.3547 17.2196 29.3796 17.3125 29.4053 17.4082C29.4267 17.4872 29.4481 17.5662 29.4701 17.6475C29.5148 17.8444 29.5148 17.8444 29.5148 18.1018C29.5714 18.1018 29.628 18.1018 29.6863 18.1018C29.694 18.0557 29.7016 18.0096 29.7095 17.962C29.8385 17.2521 30.0533 16.5701 30.2671 15.8823C30.3081 15.7492 30.3491 15.616 30.3901 15.4829C30.4767 15.2016 30.5636 14.9203 30.6507 14.6392C30.786 14.2022 30.9209 13.7651 31.0555 13.328C31.0778 13.2558 31.1 13.1836 31.1229 13.1092C31.1677 12.9639 31.2125 12.8186 31.2572 12.6733C31.3239 12.4568 31.3907 12.2403 31.4575 12.0237C31.8582 10.7245 32.2522 9.42328 32.6424 8.12085C32.6734 8.01771 32.6734 8.01771 32.705 7.91248C32.7425 7.78773 32.7799 7.66293 32.817 7.53808C32.9368 7.13979 32.9368 7.13979 33.0322 6.94891C34.5044 6.94891 35.9766 6.94891 37.4934 6.94891C37.9083 8.19381 38.3184 9.43522 38.6978 10.6906C38.7437 10.8414 38.7895 10.9923 38.8354 11.1432C38.9542 11.5339 39.0727 11.9246 39.1911 12.3154C39.3809 12.9418 39.5712 13.568 39.7615 14.1943C39.8267 14.4089 39.8918 14.6236 39.9568 14.8384C40.1709 15.5445 40.3873 16.2498 40.6075 16.9541C40.6294 17.0248 40.6513 17.0956 40.6739 17.1685C40.7533 17.4887 40.7533 17.4887 40.925 17.7587C40.9464 17.68 40.9678 17.6013 40.9898 17.5202C41.0938 17.1372 41.1977 16.7542 41.3017 16.3712C41.3211 16.2998 41.3405 16.2283 41.3605 16.1547C41.5953 15.2898 41.8302 14.425 42.0652 13.5602C42.0974 13.4418 42.0974 13.4418 42.1302 13.321C42.3081 12.6663 42.3081 12.6663 42.3888 12.3692C42.6215 11.5132 42.8539 10.6571 43.0855 9.80078C43.1821 9.44362 43.2789 9.08651 43.3758 8.72941C43.4184 8.5723 43.4608 8.41516 43.5032 8.25799C43.5601 8.04676 43.6174 7.83563 43.6747 7.62452C43.6989 7.53442 43.6989 7.53442 43.7235 7.4425C43.8322 7.04449 43.8322 7.04449 43.9277 6.94891C44.0634 6.94068 44.1995 6.93845 44.3354 6.93859C44.4236 6.93847 44.5118 6.93835 44.6026 6.93823C44.7002 6.93854 44.7978 6.93885 44.8983 6.93917C45.0004 6.93915 45.1025 6.93914 45.2077 6.93913C45.4884 6.93918 45.7692 6.93961 46.05 6.94021C46.3431 6.94074 46.6362 6.94079 46.9293 6.9409C47.4847 6.94116 48.0401 6.94187 48.5956 6.94273C49.2277 6.94369 49.8599 6.94416 50.4921 6.94459C51.7928 6.94549 53.0936 6.947 54.3943 6.94891C54.4624 7.09731 54.5303 7.24579 54.5981 7.39429C54.6359 7.47696 54.6738 7.55963 54.7127 7.64481C54.875 8.00865 55.0191 8.37851 55.1614 8.75053C55.2078 8.87061 55.2078 8.87061 55.2551 8.99311C55.3215 9.16542 55.3879 9.33777 55.4541 9.51016C55.6343 9.97893 55.8155 10.4473 55.9966 10.9158C56.0341 11.0129 56.0716 11.11 56.1103 11.2101C56.5144 12.2558 56.9231 13.2996 57.3327 14.3431C57.3682 14.4337 57.4038 14.5242 57.4404 14.6176C58.1099 16.3233 58.7821 18.0279 59.456 19.7319C59.6397 19.5482 59.6796 19.4475 59.7606 19.2056C59.7856 19.1315 59.8107 19.0573 59.8366 18.981C59.8635 18.8998 59.8904 18.8186 59.9182 18.7349C59.9468 18.65 59.9754 18.5651 60.0049 18.4777C60.0668 18.2937 60.1286 18.1096 60.1901 17.9254C60.355 17.4324 60.5216 16.9399 60.688 16.4473C60.7217 16.3472 60.7554 16.2472 60.7902 16.1441C61.0956 15.2396 61.4084 14.3378 61.7242 13.4369C61.828 13.1405 61.9317 12.8442 62.0355 12.5478C62.075 12.435 62.075 12.435 62.1153 12.3198C62.3429 11.6691 62.5684 11.0177 62.7935 10.3662C62.8291 10.2633 62.8646 10.1605 62.9012 10.0546C63.0424 9.64602 63.1835 9.23742 63.3244 8.82875C63.4216 8.54694 63.5189 8.26518 63.6163 7.98343C63.6455 7.89846 63.6748 7.81348 63.7049 7.72593C63.7317 7.64838 63.7585 7.57084 63.7861 7.49095C63.8095 7.4232 63.8328 7.35546 63.8569 7.28566C63.9172 7.12049 63.9172 7.12049 64.003 6.94891C65.7017 6.94891 67.4003 6.94891 69.1505 6.94891C68.9852 7.49994 68.8166 8.03893 68.619 8.57761C68.5929 8.64934 68.5668 8.72107 68.5399 8.79498C68.4541 9.03048 68.368 9.26585 68.2818 9.50121C68.2204 9.66969 68.1589 9.83818 68.0974 10.0067C67.5223 11.582 66.9404 13.1548 66.3581 14.7275C65.9965 15.7045 65.6366 16.6822 65.2766 17.6598C65.1617 17.9719 65.0467 18.2839 64.9316 18.596C64.6036 19.4861 64.2756 20.3763 63.9489 21.267C63.8189 21.6214 63.6886 21.9758 63.5583 22.3301C63.4988 22.4919 63.4395 22.6537 63.3804 22.8155C63.0674 23.6714 62.7439 24.522 62.4008 25.3663C62.3701 25.4422 62.3393 25.5182 62.3077 25.5964C61.6429 27.2156 60.7723 28.6864 59.5418 29.9411C59.4842 30.0008 59.4266 30.0605 59.3672 30.122C57.8893 31.5475 55.6951 32.0056 53.708 32.0001C52.3678 31.958 51.1141 31.6502 49.8474 31.2279C49.8474 29.7558 49.8474 28.2836 49.8474 26.7668C50.1275 26.8228 50.3552 26.8729 50.6168 26.9675C52.2166 27.5325 53.9377 27.8538 55.5599 27.1431C55.9717 26.9065 56.2994 26.5947 56.6249 26.252C56.6791 26.1981 56.7333 26.1441 56.7891 26.0885C56.9365 25.9101 56.9982 25.7904 57.0539 25.5657C57.009 25.3522 57.009 25.3522 56.9057 25.121C56.8446 24.9719 56.8446 24.9719 56.7823 24.8198C56.73 24.6966 56.6775 24.5735 56.6249 24.4504C56.594 24.3772 56.5631 24.3039 56.5312 24.2285C56.2562 23.5773 55.9769 22.928 55.6973 22.2788C55.6054 22.065 55.5135 21.8511 55.4216 21.6372C55.255 21.2493 55.0884 20.8614 54.9216 20.4736C54.5013 19.4961 54.0822 18.518 53.6632 17.5399C53.4506 17.0436 53.238 16.5474 53.0253 16.0512C52.9831 15.9525 52.9408 15.8539 52.8972 15.7522C52.6076 15.0765 52.3178 14.401 52.0278 13.7255C51.121 11.6131 50.2146 9.50075 49.3326 7.37786C49.0397 8.07419 48.8005 8.7859 48.5665 9.50355C48.5261 9.62687 48.4856 9.75018 48.4452 9.87349C48.3375 10.2016 48.2302 10.5297 48.123 10.8579C48.0111 11.2004 47.8989 11.5427 47.7867 11.885C47.5294 12.6703 47.2727 13.4557 47.0162 14.2412C46.9674 14.3909 46.9674 14.3909 46.9175 14.5436C46.6219 15.4492 46.3271 16.3551 46.0327 17.2611C45.7526 18.1229 45.4718 18.9844 45.1908 19.8458C45.1333 20.022 45.0759 20.1982 45.0184 20.3745C44.5751 21.7352 44.1229 23.0927 43.6704 24.4504C42.0283 24.4504 40.3863 24.4504 38.6945 24.4504C38.5042 23.8198 38.314 23.1892 38.118 22.5395C37.9961 22.1353 37.8741 21.731 37.7521 21.3267C37.5593 20.6879 37.3665 20.049 37.1738 19.4101C37.0181 18.8939 36.8624 18.3776 36.7066 17.8614C36.6477 17.6665 36.5889 17.4715 36.5301 17.2765C36.1125 15.8915 35.6896 14.5081 35.2628 13.1259C35.2473 13.1771 35.2319 13.2284 35.216 13.2812C34.487 15.6983 33.7567 18.115 33.0246 20.5312C32.9682 20.7174 32.9117 20.9037 32.8553 21.09C32.7654 21.3868 32.6755 21.6836 32.5855 21.9804C32.5369 22.1408 32.4883 22.3012 32.4397 22.4616C32.4098 22.5604 32.3798 22.6591 32.349 22.7609C32.3234 22.8453 32.2978 22.9297 32.2715 23.0166C32.1256 23.4948 31.9782 23.9726 31.8311 24.4504C30.1891 24.4504 28.547 24.4504 26.8552 24.4504C26.6516 23.9413 26.454 23.4435 26.285 22.9242C26.2648 22.8629 26.2446 22.8017 26.2238 22.7385C26.1576 22.5377 26.0919 22.3367 26.0261 22.1357C25.9789 21.9921 25.9317 21.8485 25.8845 21.705C25.7584 21.3216 25.6327 20.9382 25.5071 20.5547C25.3758 20.1541 25.2442 19.7537 25.1126 19.3532C24.8293 18.4906 24.5464 17.6278 24.2637 16.765C24.1811 16.5131 24.0985 16.2612 24.016 16.0093C23.6527 14.9014 23.2902 13.7932 22.9281 12.6849C22.7094 12.0157 22.4898 11.3469 22.2698 10.6781C22.1604 10.3453 22.0511 10.0124 21.9418 9.67956C21.8542 9.41273 21.7664 9.14594 21.6785 8.87921C21.5824 8.58739 21.4865 8.29548 21.3907 8.00354C21.3474 7.87256 21.3474 7.87256 21.3032 7.73893C21.2772 7.6595 21.2512 7.58007 21.2244 7.49824C21.2017 7.42903 21.1789 7.35981 21.1554 7.28851C21.1072 7.12049 21.1072 7.12049 21.1072 6.94891Z" fill="#A34FD3"/>
<path d="M21.1072 6.94891C22.9191 6.94891 24.731 6.94891 26.5978 6.94891C27.127 8.92251 27.127 8.92251 27.3572 9.78137C27.5127 10.3613 27.6682 10.9412 27.8236 11.5211C27.8742 11.7095 27.9247 11.8979 27.9752 12.0864C28.0125 12.2253 28.0125 12.2253 28.0505 12.3671C28.1738 12.8269 28.297 13.2867 28.4201 13.7466C28.4676 13.9241 28.5151 14.1016 28.5627 14.2791C28.5855 14.3645 28.6084 14.45 28.632 14.5379C28.7545 14.9956 28.8775 15.4531 29.0011 15.9104C29.0673 16.1556 29.1333 16.4007 29.1993 16.646C29.2425 16.8063 29.2861 16.9665 29.3297 17.1267C29.3547 17.2196 29.3796 17.3125 29.4053 17.4082C29.4267 17.4872 29.4481 17.5662 29.4701 17.6475C29.5148 17.8444 29.5148 17.8444 29.5148 18.1018C29.5714 18.1018 29.628 18.1018 29.6863 18.1018C29.694 18.0557 29.7016 18.0096 29.7095 17.962C29.8385 17.2521 30.0533 16.5701 30.2671 15.8823C30.3081 15.7492 30.3491 15.616 30.3901 15.4829C30.4767 15.2016 30.5636 14.9203 30.6507 14.6392C30.786 14.2022 30.9209 13.7651 31.0555 13.328C31.0778 13.2558 31.1 13.1836 31.1229 13.1092C31.1677 12.9639 31.2125 12.8186 31.2572 12.6733C31.3239 12.4568 31.3907 12.2403 31.4575 12.0237C31.8582 10.7245 32.2522 9.42328 32.6424 8.12085C32.6734 8.01771 32.6734 8.01771 32.705 7.91248C32.7425 7.78773 32.7799 7.66293 32.817 7.53808C32.9368 7.13979 32.9368 7.13979 33.0322 6.94891C34.5044 6.94891 35.9766 6.94891 37.4934 6.94891C37.9083 8.19381 38.3184 9.43522 38.6978 10.6906C38.7437 10.8414 38.7895 10.9923 38.8354 11.1432C38.9542 11.5339 39.0727 11.9246 39.1911 12.3154C39.3809 12.9418 39.5712 13.568 39.7615 14.1943C39.8267 14.4089 39.8918 14.6236 39.9568 14.8384C40.1709 15.5445 40.3873 16.2498 40.6075 16.9541C40.6294 17.0248 40.6513 17.0956 40.6739 17.1685C40.7533 17.4887 40.7533 17.4887 40.925 17.7587C40.9464 17.68 40.9678 17.6013 40.9898 17.5202C41.0938 17.1372 41.1977 16.7542 41.3017 16.3712C41.3211 16.2998 41.3405 16.2283 41.3605 16.1547C41.5953 15.2898 41.8302 14.425 42.0652 13.5602C42.0974 13.4418 42.0974 13.4418 42.1302 13.321C42.3081 12.6663 42.3081 12.6663 42.3888 12.3692C42.6215 11.5132 42.8539 10.6571 43.0855 9.80078C43.1821 9.44362 43.2789 9.08651 43.3758 8.72941C43.4184 8.5723 43.4608 8.41516 43.5032 8.25799C43.5601 8.04676 43.6174 7.83563 43.6747 7.62452C43.6989 7.53442 43.6989 7.53442 43.7235 7.4425C43.8322 7.04449 43.8322 7.04449 43.9277 6.94891C44.0634 6.94068 44.1995 6.93845 44.3354 6.93859C44.4236 6.93847 44.5118 6.93835 44.6026 6.93823C44.7002 6.93854 44.7978 6.93885 44.8983 6.93917C45.0004 6.93915 45.1025 6.93914 45.2077 6.93913C45.4884 6.93918 45.7692 6.93961 46.05 6.94021C46.3431 6.94074 46.6362 6.94079 46.9293 6.9409C47.4847 6.94116 48.0401 6.94187 48.5956 6.94273C49.2277 6.94369 49.8599 6.94416 50.4921 6.94459C51.7928 6.94549 53.0936 6.947 54.3943 6.94891C54.4624 7.09731 54.5303 7.24579 54.5981 7.39429C54.6359 7.47696 54.6738 7.55963 54.7127 7.64481C54.875 8.00865 55.0191 8.37851 55.1614 8.75053C55.2078 8.87061 55.2078 8.87061 55.2551 8.99311C55.3215 9.16542 55.3879 9.33777 55.4541 9.51016C55.6343 9.97893 55.8155 10.4473 55.9966 10.9158C56.0341 11.0129 56.0716 11.11 56.1103 11.2101C56.5144 12.2558 56.9231 13.2996 57.3327 14.3431C57.3682 14.4337 57.4038 14.5242 57.4404 14.6176C58.1099 16.3233 58.7821 18.0279 59.456 19.7319C59.6397 19.5482 59.6796 19.4475 59.7606 19.2056C59.7856 19.1315 59.8107 19.0573 59.8366 18.981C59.8635 18.8998 59.8904 18.8186 59.9182 18.7349C59.9468 18.65 59.9754 18.5651 60.0049 18.4777C60.0668 18.2937 60.1286 18.1096 60.1901 17.9254C60.355 17.4324 60.5216 16.9399 60.688 16.4473C60.7217 16.3472 60.7554 16.2472 60.7902 16.1441C61.0956 15.2396 61.4084 14.3378 61.7242 13.4369C61.828 13.1405 61.9317 12.8442 62.0355 12.5478C62.075 12.435 62.075 12.435 62.1153 12.3198C62.3429 11.6691 62.5684 11.0177 62.7935 10.3662C62.8291 10.2633 62.8646 10.1605 62.9012 10.0546C63.0424 9.64602 63.1835 9.23742 63.3244 8.82875C63.4216 8.54694 63.5189 8.26518 63.6163 7.98343C63.6455 7.89846 63.6748 7.81348 63.7049 7.72593C63.7317 7.64838 63.7585 7.57084 63.7861 7.49095C63.8095 7.4232 63.8328 7.35546 63.8569 7.28566C63.9172 7.12049 63.9172 7.12049 64.003 6.94891C65.7017 6.94891 67.4003 6.94891 69.1505 6.94891C68.9852 7.49994 68.8166 8.03893 68.619 8.57761C68.5929 8.64934 68.5668 8.72107 68.5399 8.79498C68.4541 9.03048 68.368 9.26585 68.2818 9.50121C68.2204 9.66969 68.1589 9.83818 68.0974 10.0067C67.5223 11.582 66.9404 13.1548 66.3581 14.7275C65.9965 15.7045 65.6366 16.6822 65.2766 17.6598C65.1617 17.9719 65.0467 18.2839 64.9316 18.596C64.6036 19.4861 64.2756 20.3763 63.9489 21.267C63.8189 21.6214 63.6886 21.9758 63.5583 22.3301C63.4988 22.4919 63.4395 22.6537 63.3804 22.8155C63.0674 23.6714 62.7439 24.522 62.4008 25.3663C62.3701 25.4422 62.3393 25.5182 62.3077 25.5964C61.6429 27.2156 60.7723 28.6864 59.5418 29.9411C59.4842 30.0008 59.4266 30.0605 59.3672 30.122C57.8893 31.5475 55.6951 32.0056 53.708 32.0001C52.3678 31.958 51.1141 31.6502 49.8474 31.2279C49.8474 29.7558 49.8474 28.2836 49.8474 26.7668C50.1275 26.8228 50.3552 26.8729 50.6168 26.9675C52.2166 27.5325 53.9377 27.8538 55.5599 27.1431C55.9717 26.9065 56.2994 26.5947 56.6249 26.252C56.6791 26.1981 56.7333 26.1441 56.7891 26.0885C56.9365 25.9101 56.9982 25.7904 57.0539 25.5657C57.009 25.3522 57.009 25.3522 56.9057 25.121C56.8446 24.9719 56.8446 24.9719 56.7823 24.8198C56.73 24.6966 56.6775 24.5735 56.6249 24.4504C56.594 24.3772 56.5631 24.3039 56.5312 24.2285C56.2562 23.5773 55.9769 22.928 55.6973 22.2788C55.6054 22.065 55.5135 21.8511 55.4216 21.6372C55.255 21.2493 55.0884 20.8614 54.9216 20.4736C54.5013 19.4961 54.0822 18.518 53.6632 17.5399C53.4506 17.0436 53.238 16.5474 53.0253 16.0512C52.9831 15.9525 52.9408 15.8539 52.8972 15.7522C52.6076 15.0765 52.3178 14.401 52.0278 13.7255C51.121 11.6131 50.2146 9.50075 49.3326 7.37786C49.0397 8.07419 48.8005 8.7859 48.5665 9.50355C48.5261 9.62687 48.4856 9.75018 48.4452 9.87349C48.3375 10.2016 48.2302 10.5297 48.123 10.8579C48.0111 11.2004 47.8989 11.5427 47.7867 11.885C47.5294 12.6703 47.2727 13.4557 47.0162 14.2412C46.9674 14.3909 46.9674 14.3909 46.9175 14.5436C46.6219 15.4492 46.3271 16.3551 46.0327 17.2611C45.7526 18.1229 45.4718 18.9844 45.1908 19.8458C45.1333 20.022 45.0759 20.1982 45.0184 20.3745C44.5751 21.7352 44.1229 23.0927 43.6704 24.4504C42.0283 24.4504 40.3863 24.4504 38.6945 24.4504C38.5042 23.8198 38.314 23.1892 38.118 22.5395C37.9961 22.1353 37.8741 21.731 37.7521 21.3267C37.5593 20.6879 37.3665 20.049 37.1738 19.4101C37.0181 18.8939 36.8624 18.3776 36.7066 17.8614C36.6477 17.6665 36.5889 17.4715 36.5301 17.2765C36.1125 15.8915 35.6896 14.5081 35.2628 13.1259C35.2473 13.1771 35.2319 13.2284 35.216 13.2812C34.487 15.6983 33.7567 18.115 33.0246 20.5312C32.9682 20.7174 32.9117 20.9037 32.8553 21.09C32.7654 21.3868 32.6755 21.6836 32.5855 21.9804C32.5369 22.1408 32.4883 22.3012 32.4397 22.4616C32.4098 22.5604 32.3798 22.6591 32.349 22.7609C32.3234 22.8453 32.2978 22.9297 32.2715 23.0166C32.1256 23.4948 31.9782 23.9726 31.8311 24.4504C30.1891 24.4504 28.547 24.4504 26.8552 24.4504C26.6516 23.9413 26.454 23.4435 26.285 22.9242C26.2648 22.8629 26.2446 22.8017 26.2238 22.7385C26.1576 22.5377 26.0919 22.3367 26.0261 22.1357C25.9789 21.9921 25.9317 21.8485 25.8845 21.705C25.7584 21.3216 25.6327 20.9382 25.5071 20.5547C25.3758 20.1541 25.2442 19.7537 25.1126 19.3532C24.8293 18.4906 24.5464 17.6278 24.2637 16.765C24.1811 16.5131 24.0985 16.2612 24.016 16.0093C23.6527 14.9014 23.2902 13.7932 22.9281 12.6849C22.7094 12.0157 22.4898 11.3469 22.2698 10.6781C22.1604 10.3453 22.0511 10.0124 21.9418 9.67956C21.8542 9.41273 21.7664 9.14594 21.6785 8.87921C21.5824 8.58739 21.4865 8.29548 21.3907 8.00354C21.3474 7.87256 21.3474 7.87256 21.3032 7.73893C21.2772 7.6595 21.2512 7.58007 21.2244 7.49824C21.2017 7.42903 21.1789 7.35981 21.1554 7.28851C21.1072 7.12049 21.1072 7.12049 21.1072 6.94891Z" fill="url(#paint0_linear_1_16175)"/>
<path d="M19.9054 3.08868C19.2692 4.46089 18.5848 5.80089 17.8464 7.12089C17.5743 7.01586 17.3077 6.90111 17.0417 6.78174C14.3615 5.58755 10.8279 4.60077 7.95218 5.68421C7.28455 5.98596 6.81437 6.3643 6.48434 7.02437C6.35887 7.72141 6.38404 8.31743 6.77925 8.92251C7.21508 9.3428 7.70993 9.56542 8.27993 9.74558C8.39654 9.78333 8.39654 9.78333 8.5155 9.82185C9.35238 10.0815 10.2046 10.2348 11.0676 10.3788C11.5289 10.456 11.9892 10.5385 12.4495 10.6213C12.539 10.6373 12.6285 10.6533 12.7206 10.6699C14.2075 10.9401 15.7016 11.2772 17.0742 11.9252C17.1578 11.9646 17.2415 12.004 17.3276 12.0445C18.7179 12.7513 19.7425 13.8699 20.2485 15.3505C20.7498 17.0929 20.579 19.0244 19.7901 20.6572C19.6671 20.8731 19.535 21.0743 19.3906 21.2765C19.3361 21.353 19.2816 21.4296 19.2254 21.5084C17.768 23.4161 15.3504 24.3004 13.042 24.6224C8.76253 25.1757 4.37313 24.3738 0.698766 22.0701C0.648184 22.0388 0.597603 22.0075 0.545489 21.9753C0.275487 21.8 0.108881 21.6682 0.00170898 21.3623C0.106249 21.1125 0.216554 20.8936 0.350237 20.6599C0.430275 20.5151 0.510137 20.3702 0.589851 20.2252C0.65494 20.1078 0.65494 20.1078 0.721345 19.9879C0.870889 19.7114 1.01275 19.4319 1.15353 19.1508C1.20268 19.0534 1.25183 18.9559 1.30247 18.8555C1.39961 18.6624 1.49599 18.4689 1.59156 18.2751C1.63645 18.1868 1.68134 18.0986 1.7276 18.0077C1.7868 17.8892 1.7868 17.8892 1.84719 17.7682C1.97492 17.5875 1.97492 17.5875 2.15092 17.5115C2.40655 17.4965 2.50469 17.6186 2.69878 17.7805C4.41668 19.0832 6.47567 19.7366 8.58087 20.0754C8.73249 20.1001 8.73249 20.1001 8.88717 20.1254C9.40815 20.1863 9.93397 20.1837 10.4579 20.1865C10.5817 20.1875 10.7055 20.1893 10.8294 20.1918C12.0417 20.2167 13.11 20.0456 14.1573 19.3891C14.2172 19.3637 14.277 19.3382 14.3386 19.312C14.5426 19.1929 14.5825 19.09 14.6721 18.8743C14.7024 18.8195 14.7327 18.7646 14.7639 18.7081C15.0693 18.1109 15.1188 17.5305 14.9707 16.8757C14.751 16.3174 14.2429 16.0464 13.7284 15.7858C13.1408 15.5336 12.5415 15.4079 11.916 15.2818C11.7529 15.2483 11.7529 15.2483 11.5865 15.2141C10.8111 15.0566 10.0328 14.9274 9.25112 14.8046C6.83332 14.4196 4.53149 13.8335 2.66125 12.1826C2.60474 12.1343 2.54823 12.0859 2.49 12.0361C1.61948 11.2393 1.13814 10.0255 1.03925 8.86119C1.0366 8.79649 1.03394 8.73179 1.03121 8.66514C1.02678 8.56771 1.02236 8.47028 1.0178 8.36989C0.974929 6.54238 1.39396 4.83505 2.67086 3.46325C6.94715 -0.927586 15.0834 0.67258 19.9054 3.08868Z" fill="#A34FD3"/>
<path d="M19.9054 3.08868C19.2692 4.46089 18.5848 5.80089 17.8464 7.12089C17.5743 7.01586 17.3077 6.90111 17.0417 6.78174C14.3615 5.58755 10.8279 4.60077 7.95218 5.68421C7.28455 5.98596 6.81437 6.3643 6.48434 7.02437C6.35887 7.72141 6.38404 8.31743 6.77925 8.92251C7.21508 9.3428 7.70993 9.56542 8.27993 9.74558C8.39654 9.78333 8.39654 9.78333 8.5155 9.82185C9.35238 10.0815 10.2046 10.2348 11.0676 10.3788C11.5289 10.456 11.9892 10.5385 12.4495 10.6213C12.539 10.6373 12.6285 10.6533 12.7206 10.6699C14.2075 10.9401 15.7016 11.2772 17.0742 11.9252C17.1578 11.9646 17.2415 12.004 17.3276 12.0445C18.7179 12.7513 19.7425 13.8699 20.2485 15.3505C20.7498 17.0929 20.579 19.0244 19.7901 20.6572C19.6671 20.8731 19.535 21.0743 19.3906 21.2765C19.3361 21.353 19.2816 21.4296 19.2254 21.5084C17.768 23.4161 15.3504 24.3004 13.042 24.6224C8.76253 25.1757 4.37313 24.3738 0.698766 22.0701C0.648184 22.0388 0.597603 22.0075 0.545489 21.9753C0.275487 21.8 0.108881 21.6682 0.00170898 21.3623C0.106249 21.1125 0.216554 20.8936 0.350237 20.6599C0.430275 20.5151 0.510137 20.3702 0.589851 20.2252C0.65494 20.1078 0.65494 20.1078 0.721345 19.9879C0.870889 19.7114 1.01275 19.4319 1.15353 19.1508C1.20268 19.0534 1.25183 18.9559 1.30247 18.8555C1.39961 18.6624 1.49599 18.4689 1.59156 18.2751C1.63645 18.1868 1.68134 18.0986 1.7276 18.0077C1.7868 17.8892 1.7868 17.8892 1.84719 17.7682C1.97492 17.5875 1.97492 17.5875 2.15092 17.5115C2.40655 17.4965 2.50469 17.6186 2.69878 17.7805C4.41668 19.0832 6.47567 19.7366 8.58087 20.0754C8.73249 20.1001 8.73249 20.1001 8.88717 20.1254C9.40815 20.1863 9.93397 20.1837 10.4579 20.1865C10.5817 20.1875 10.7055 20.1893 10.8294 20.1918C12.0417 20.2167 13.11 20.0456 14.1573 19.3891C14.2172 19.3637 14.277 19.3382 14.3386 19.312C14.5426 19.1929 14.5825 19.09 14.6721 18.8743C14.7024 18.8195 14.7327 18.7646 14.7639 18.7081C15.0693 18.1109 15.1188 17.5305 14.9707 16.8757C14.751 16.3174 14.2429 16.0464 13.7284 15.7858C13.1408 15.5336 12.5415 15.4079 11.916 15.2818C11.7529 15.2483 11.7529 15.2483 11.5865 15.2141C10.8111 15.0566 10.0328 14.9274 9.25112 14.8046C6.83332 14.4196 4.53149 13.8335 2.66125 12.1826C2.60474 12.1343 2.54823 12.0859 2.49 12.0361C1.61948 11.2393 1.13814 10.0255 1.03925 8.86119C1.0366 8.79649 1.03394 8.73179 1.03121 8.66514C1.02678 8.56771 1.02236 8.47028 1.0178 8.36989C0.974929 6.54238 1.39396 4.83505 2.67086 3.46325C6.94715 -0.927586 15.0834 0.67258 19.9054 3.08868Z" fill="url(#paint1_linear_1_16175)"/>
<path d="M90.0144 3.64869C91.0548 4.56948 91.8679 5.56586 92.5429 6.78243C92.573 6.83555 92.6032 6.88867 92.6343 6.94339C92.7542 7.16952 92.8291 7.33604 92.8164 7.59431C92.7159 7.87839 92.6057 7.9212 92.3378 8.05215C92.2089 8.11651 92.2089 8.11651 92.0775 8.18217C91.9841 8.22687 91.8908 8.27157 91.7945 8.31763C91.6995 8.36463 91.6044 8.41163 91.5064 8.46005C91.2537 8.58458 91.0005 8.70773 90.7469 8.83027C90.4881 8.95569 90.2303 9.08289 89.9723 9.2099C89.4662 9.45868 88.9593 9.70568 88.4517 9.95136C88.2265 9.73632 88.0997 9.53306 87.9584 9.2543C87.0826 7.62086 85.6625 6.47386 83.9047 5.91915C83.842 5.89913 83.7793 5.87912 83.7147 5.85849C82.0098 5.40363 80.1045 5.69698 78.5696 6.53042C77.0127 7.49636 75.8405 9.05525 75.3896 10.8331C74.9395 13.0787 75.2064 15.1442 76.4422 17.0865C77.5596 18.6812 79.1338 19.6066 81.0424 19.9431C81.225 19.9663 81.4046 19.9808 81.5884 19.989C81.6454 19.9924 81.7025 19.9958 81.7613 19.9994C83.6067 20.0575 85.2737 19.3884 86.6501 18.1874C86.7028 18.1428 86.7556 18.0982 86.8099 18.0523C87.4102 17.5045 87.8472 16.7478 88.2056 16.0233C88.2359 15.9624 88.2661 15.9014 88.2972 15.8387C88.3312 15.7697 88.3312 15.7697 88.3659 15.6994C89.3317 16.093 90.2939 16.4942 91.2492 16.9129C91.3882 16.9735 91.5275 17.0336 91.6669 17.0932C91.8719 17.1809 92.0761 17.2702 92.2801 17.3599C92.3427 17.3863 92.4052 17.4127 92.4696 17.4398C92.8879 17.6267 92.8879 17.6267 93.0048 17.8416C92.9972 18.0552 92.9459 18.1804 92.8465 18.3697C92.8115 18.4369 92.7765 18.504 92.7404 18.5733C92.6824 18.6795 92.6824 18.6795 92.6233 18.7879C92.584 18.8609 92.5448 18.9339 92.5044 19.0091C91.102 21.5617 88.7226 23.3938 85.9637 24.2786C82.6352 25.2349 79.0074 24.9727 75.9348 23.349C74.5967 22.6073 73.3262 21.5137 72.414 20.2839C72.3698 20.2243 72.3255 20.1648 72.2799 20.1035C71.4413 18.9558 70.8246 17.7117 70.4569 16.3375C70.4313 16.2419 70.4313 16.2419 70.4052 16.1444C70.1315 15.0617 70.0601 14.0058 70.0655 12.8951C70.0656 12.8267 70.0658 12.7582 70.066 12.6877C70.0703 11.6978 70.0962 10.742 70.3496 9.77977C70.3752 9.67788 70.3752 9.67788 70.4013 9.57393C70.8532 7.80898 71.6589 6.28203 72.8376 4.88965C72.8977 4.81799 72.9577 4.74633 73.0196 4.67249C73.4841 4.13588 73.9913 3.69143 74.5534 3.25961C74.6255 3.20232 74.6976 3.14504 74.7719 3.08602C79.1435 -0.265479 85.8743 0.163897 90.0144 3.64869Z" fill="#A34FD3"/>
<path d="M90.0144 3.64869C91.0548 4.56948 91.8679 5.56586 92.5429 6.78243C92.573 6.83555 92.6032 6.88867 92.6343 6.94339C92.7542 7.16952 92.8291 7.33604 92.8164 7.59431C92.7159 7.87839 92.6057 7.9212 92.3378 8.05215C92.2089 8.11651 92.2089 8.11651 92.0775 8.18217C91.9841 8.22687 91.8908 8.27157 91.7945 8.31763C91.6995 8.36463 91.6044 8.41163 91.5064 8.46005C91.2537 8.58458 91.0005 8.70773 90.7469 8.83027C90.4881 8.95569 90.2303 9.08289 89.9723 9.2099C89.4662 9.45868 88.9593 9.70568 88.4517 9.95136C88.2265 9.73632 88.0997 9.53306 87.9584 9.2543C87.0826 7.62086 85.6625 6.47386 83.9047 5.91915C83.842 5.89913 83.7793 5.87912 83.7147 5.85849C82.0098 5.40363 80.1045 5.69698 78.5696 6.53042C77.0127 7.49636 75.8405 9.05525 75.3896 10.8331C74.9395 13.0787 75.2064 15.1442 76.4422 17.0865C77.5596 18.6812 79.1338 19.6066 81.0424 19.9431C81.225 19.9663 81.4046 19.9808 81.5884 19.989C81.6454 19.9924 81.7025 19.9958 81.7613 19.9994C83.6067 20.0575 85.2737 19.3884 86.6501 18.1874C86.7028 18.1428 86.7556 18.0982 86.8099 18.0523C87.4102 17.5045 87.8472 16.7478 88.2056 16.0233C88.2359 15.9624 88.2661 15.9014 88.2972 15.8387C88.3312 15.7697 88.3312 15.7697 88.3659 15.6994C89.3317 16.093 90.2939 16.4942 91.2492 16.9129C91.3882 16.9735 91.5275 17.0336 91.6669 17.0932C91.8719 17.1809 92.0761 17.2702 92.2801 17.3599C92.3427 17.3863 92.4052 17.4127 92.4696 17.4398C92.8879 17.6267 92.8879 17.6267 93.0048 17.8416C92.9972 18.0552 92.9459 18.1804 92.8465 18.3697C92.8115 18.4369 92.7765 18.504 92.7404 18.5733C92.6824 18.6795 92.6824 18.6795 92.6233 18.7879C92.584 18.8609 92.5448 18.9339 92.5044 19.0091C91.102 21.5617 88.7226 23.3938 85.9637 24.2786C82.6352 25.2349 79.0074 24.9727 75.9348 23.349C74.5967 22.6073 73.3262 21.5137 72.414 20.2839C72.3698 20.2243 72.3255 20.1648 72.2799 20.1035C71.4413 18.9558 70.8246 17.7117 70.4569 16.3375C70.4313 16.2419 70.4313 16.2419 70.4052 16.1444C70.1315 15.0617 70.0601 14.0058 70.0655 12.8951C70.0656 12.8267 70.0658 12.7582 70.066 12.6877C70.0703 11.6978 70.0962 10.742 70.3496 9.77977C70.3752 9.67788 70.3752 9.67788 70.4013 9.57393C70.8532 7.80898 71.6589 6.28203 72.8376 4.88965C72.8977 4.81799 72.9577 4.74633 73.0196 4.67249C73.4841 4.13588 73.9913 3.69143 74.5534 3.25961C74.6255 3.20232 74.6976 3.14504 74.7719 3.08602C79.1435 -0.265479 85.8743 0.163897 90.0144 3.64869Z" fill="url(#paint2_linear_1_16175)"/>
<path d="M95.3184 0C96.9887 0 98.6591 0 100.38 0C100.408 2.74619 100.437 5.49238 100.466 8.32179C100.834 8.06699 101.202 7.81218 101.581 7.54966C103.433 6.508 105.545 6.39701 107.587 6.86333C109.191 7.33457 110.624 8.38088 111.448 9.84915C111.813 10.5376 112.079 11.242 112.219 12.0108C112.234 12.091 112.249 12.1712 112.264 12.2538C112.334 12.7548 112.316 13.2616 112.315 13.7663C112.315 13.8831 112.315 13.9998 112.315 14.1165C112.315 14.432 112.314 14.7475 112.314 15.0629C112.313 15.3932 112.313 15.7234 112.313 16.0536C112.313 16.6783 112.312 17.3029 112.311 17.9276C112.31 18.639 112.31 19.3505 112.309 20.0619C112.309 21.5248 112.307 22.9877 112.305 24.4506C110.635 24.4506 108.964 24.4506 107.243 24.4506C107.24 23.3367 107.24 23.3367 107.237 22.2003C107.234 21.6683 107.232 21.1363 107.229 20.6043C107.225 19.9162 107.222 19.2281 107.22 18.54C107.219 17.9949 107.217 17.4499 107.213 16.9048C107.211 16.6166 107.21 16.3285 107.21 16.0403C107.21 15.7173 107.207 15.3944 107.204 15.0714C107.205 14.9776 107.205 14.8837 107.206 14.787C107.191 13.714 106.893 12.7465 106.163 11.9472C105.56 11.3766 104.823 11.1831 104.009 11.1449C103.015 11.1731 102.163 11.5619 101.474 12.2736C100.666 13.2431 100.441 14.3542 100.439 15.5779C100.437 15.7224 100.437 15.7224 100.436 15.8698C100.433 16.186 100.432 16.5021 100.43 16.8182C100.429 17.0383 100.427 17.2584 100.425 17.4785C100.421 17.9971 100.418 18.5157 100.415 19.0343C100.412 19.6833 100.407 20.3323 100.402 20.9812C100.394 22.1377 100.387 23.2941 100.38 24.4506C98.7097 24.4506 97.0393 24.4506 95.3184 24.4506C95.3184 16.3819 95.3184 8.31321 95.3184 0Z" fill="#A34FD3"/>
<path d="M95.3184 0C96.9887 0 98.6591 0 100.38 0C100.408 2.74619 100.437 5.49238 100.466 8.32179C100.834 8.06699 101.202 7.81218 101.581 7.54966C103.433 6.508 105.545 6.39701 107.587 6.86333C109.191 7.33457 110.624 8.38088 111.448 9.84915C111.813 10.5376 112.079 11.242 112.219 12.0108C112.234 12.091 112.249 12.1712 112.264 12.2538C112.334 12.7548 112.316 13.2616 112.315 13.7663C112.315 13.8831 112.315 13.9998 112.315 14.1165C112.315 14.432 112.314 14.7475 112.314 15.0629C112.313 15.3932 112.313 15.7234 112.313 16.0536C112.313 16.6783 112.312 17.3029 112.311 17.9276C112.31 18.639 112.31 19.3505 112.309 20.0619C112.309 21.5248 112.307 22.9877 112.305 24.4506C110.635 24.4506 108.964 24.4506 107.243 24.4506C107.24 23.3367 107.24 23.3367 107.237 22.2003C107.234 21.6683 107.232 21.1363 107.229 20.6043C107.225 19.9162 107.222 19.2281 107.22 18.54C107.219 17.9949 107.217 17.4499 107.213 16.9048C107.211 16.6166 107.21 16.3285 107.21 16.0403C107.21 15.7173 107.207 15.3944 107.204 15.0714C107.205 14.9776 107.205 14.8837 107.206 14.787C107.191 13.714 106.893 12.7465 106.163 11.9472C105.56 11.3766 104.823 11.1831 104.009 11.1449C103.015 11.1731 102.163 11.5619 101.474 12.2736C100.666 13.2431 100.441 14.3542 100.439 15.5779C100.437 15.7224 100.437 15.7224 100.436 15.8698C100.433 16.186 100.432 16.5021 100.43 16.8182C100.429 17.0383 100.427 17.2584 100.425 17.4785C100.421 17.9971 100.418 18.5157 100.415 19.0343C100.412 19.6833 100.407 20.3323 100.402 20.9812C100.394 22.1377 100.387 23.2941 100.38 24.4506C98.7097 24.4506 97.0393 24.4506 95.3184 24.4506C95.3184 16.3819 95.3184 8.31321 95.3184 0Z" fill="url(#paint3_linear_1_16175)"/>
<path d="M125.346 6.57905C125.418 6.57656 125.49 6.57407 125.565 6.57151C126.317 6.56425 126.789 6.73922 127.576 6.94902C127.576 8.56276 127.576 10.1765 127.576 11.8391C126.718 11.6676 126.718 11.6676 126.479 11.6133C125.134 11.3225 123.753 11.4189 122.554 12.1274C121.593 12.7675 121.169 13.7844 120.94 14.8848C120.804 15.7102 120.843 16.5624 120.841 17.3962C120.839 17.6003 120.838 17.8044 120.836 18.0085C120.832 18.5418 120.829 19.0752 120.827 19.6086C120.824 20.2507 120.819 20.8927 120.815 21.5347C120.808 22.5066 120.803 23.4786 120.799 24.4505C119.157 24.4505 117.515 24.4505 115.823 24.4505C115.823 18.675 115.823 12.8995 115.823 6.94902C117.408 6.94902 118.994 6.94902 120.627 6.94902C120.655 7.54356 120.684 8.1381 120.713 8.75065C120.826 8.61971 120.939 8.48877 121.056 8.35386C122.21 7.0778 123.652 6.59775 125.346 6.57905Z" fill="#A34FD3"/>
<path d="M125.346 6.57905C125.418 6.57656 125.49 6.57407 125.565 6.57151C126.317 6.56425 126.789 6.73922 127.576 6.94902C127.576 8.56276 127.576 10.1765 127.576 11.8391C126.718 11.6676 126.718 11.6676 126.479 11.6133C125.134 11.3225 123.753 11.4189 122.554 12.1274C121.593 12.7675 121.169 13.7844 120.94 14.8848C120.804 15.7102 120.843 16.5624 120.841 17.3962C120.839 17.6003 120.838 17.8044 120.836 18.0085C120.832 18.5418 120.829 19.0752 120.827 19.6086C120.824 20.2507 120.819 20.8927 120.815 21.5347C120.808 22.5066 120.803 23.4786 120.799 24.4505C119.157 24.4505 117.515 24.4505 115.823 24.4505C115.823 18.675 115.823 12.8995 115.823 6.94902C117.408 6.94902 118.994 6.94902 120.627 6.94902C120.655 7.54356 120.684 8.1381 120.713 8.75065C120.826 8.61971 120.939 8.48877 121.056 8.35386C122.21 7.0778 123.652 6.59775 125.346 6.57905Z" fill="url(#paint4_linear_1_16175)"/>
<defs>
<linearGradient id="paint0_linear_1_16175" x1="69.1505" y1="19.4692" x2="21.1072" y2="19.4692" gradientUnits="userSpaceOnUse">
<stop stop-color="#A34FD3"/>
<stop offset="1" stop-color="#8C1BC1"/>
</linearGradient>
<linearGradient id="paint1_linear_1_16175" x1="20.5318" y1="12.7469" x2="0.00170898" y2="12.7469" gradientUnits="userSpaceOnUse">
<stop stop-color="#A34FD3"/>
<stop offset="1" stop-color="#8C1BC1"/>
</linearGradient>
<linearGradient id="paint2_linear_1_16175" x1="93.0048" y1="12.8117" x2="70.0652" y2="12.8117" gradientUnits="userSpaceOnUse">
<stop stop-color="#A34FD3"/>
<stop offset="1" stop-color="#8C1BC1"/>
</linearGradient>
<linearGradient id="paint3_linear_1_16175" x1="112.318" y1="12.2253" x2="95.3184" y2="12.2253" gradientUnits="userSpaceOnUse">
<stop stop-color="#A34FD3"/>
<stop offset="1" stop-color="#8C1BC1"/>
</linearGradient>
<linearGradient id="paint4_linear_1_16175" x1="127.576" y1="15.5109" x2="115.823" y2="15.5109" gradientUnits="userSpaceOnUse">
<stop stop-color="#A34FD3"/>
<stop offset="1" stop-color="#8C1BC1"/>
</linearGradient>
</defs>
</svg>
